<svg width="17" height="16" viewBox="0 0 17 16" fill="none" xmlns="http://www.w3.org/2000/svg">
<path d="M15.3 5.89474V5.05263L10.2 0H1.7C0.7565 0 0 0.749474 0 1.68421V13.4737C0 14.4084 0.765 15.1579 1.7 15.1579H6.8V13.5832L13.9315 6.51789C14.3055 6.14737 14.7815 5.94526 15.3 5.89474ZM9.35 1.26316L14.025 5.89474H9.35V1.26316ZM16.8725 9.42316L16.0395 10.2484L14.3055 8.53053L15.1385 7.70526C15.3 7.53684 15.5805 7.53684 15.7505 7.70526L16.8725 8.81684C17.0425 8.98526 17.0425 9.26316 16.8725 9.42316ZM13.7105 9.12L15.4445 10.8379L10.234 16H8.5V14.2821L13.7105 9.12Z" fill="black"/>
</svg>
